<svg width="201" height="47" viewBox="0 0 201 47" fill="none" xmlns="http://www.w3.org/2000/svg">
<path d="M3.22677 34C3.01587 34 2.83661 33.9367 2.68898 33.8102C2.54135 33.6626 2.46753 33.4727 2.46753 33.2408V12.6464C2.46753 12.4144 2.54135 12.2246 2.68898 12.0769C2.83661 11.9293 3.01587 11.8555 3.22677 11.8555H6.10556C6.33755 11.8555 6.51681 11.9293 6.64335 12.0769C6.79098 12.2246 6.8648 12.4144 6.8648 12.6464V20.8082H16.1971V12.6464C16.1971 12.4144 16.2709 12.2246 16.4186 12.0769C16.5662 11.9293 16.7455 11.8555 16.9564 11.8555H19.8035C20.0355 11.8555 20.2253 11.9293 20.3729 12.0769C20.5206 12.2246 20.5944 12.4144 20.5944 12.6464V33.2408C20.5944 33.4517 20.5206 33.6309 20.3729 33.7786C20.2253 33.9262 20.0355 34 19.8035 34H16.9564C16.7455 34 16.5662 33.9262 16.4186 33.7786C16.2709 33.6309 16.1971 33.4517 16.1971 33.2408V24.7626H6.8648V33.2408C6.8648 33.4517 6.79098 33.6309 6.64335 33.7786C6.51681 33.9262 6.33755 34 6.10556 34H3.22677ZM27.3043 34C27.0934 34 26.9141 33.9262 26.7665 33.7786C26.6188 33.6309 26.545 33.4517 26.545 33.2408V12.6464C26.545 12.4144 26.6188 12.2246 26.7665 12.0769C26.9141 11.9293 27.0934 11.8555 27.3043 11.8555H41.2237C41.4556 11.8555 41.6455 11.9293 41.7931 12.0769C41.9407 12.2246 42.0145 12.4144 42.0145 12.6464V14.7343C42.0145 14.9452 41.9407 15.1244 41.7931 15.2721C41.6455 15.4197 41.4556 15.4935 41.2237 15.4935H30.8157V21.0929H40.5277C40.7597 21.0929 40.9495 21.1667 41.0971 21.3144C41.2447 21.4409 41.3186 21.6202 41.3186 21.8522V23.8135C41.3186 24.0455 41.2447 24.2353 41.0971 24.383C40.9495 24.5095 40.7597 24.5728 40.5277 24.5728H30.8157V30.362H41.4767C41.7087 30.362 41.8985 30.4358 42.0462 30.5834C42.1938 30.731 42.2676 30.9209 42.2676 31.1528V33.2408C42.2676 33.4517 42.1938 33.6309 42.0462 33.7786C41.8985 33.9262 41.7087 34 41.4767 34H27.3043ZM45.8639 34C45.6952 34 45.537 33.9367 45.3894 33.8102C45.2628 33.6836 45.1996 33.5255 45.1996 33.3357C45.1996 33.2513 45.2207 33.1564 45.2628 33.0509L52.8869 12.6464C52.9501 12.4355 53.0661 12.2562 53.2349 12.1086C53.4247 11.9399 53.6778 11.8555 53.9941 11.8555H57.4423C57.7587 11.8555 58.0012 11.9399 58.1699 12.1086C58.3386 12.2562 58.4652 12.4355 58.5495 12.6464L66.1736 33.0509C66.1947 33.1564 66.2052 33.2513 66.2052 33.3357C66.2052 33.5255 66.1419 33.6836 66.0154 33.8102C65.8889 33.9367 65.7412 34 65.5725 34H62.8203C62.525 34 62.3036 33.9367 62.1559 33.8102C62.0294 33.6626 61.945 33.5255 61.9029 33.3989L60.416 29.5395H51.0204L49.5336 33.3989C49.4914 33.5255 49.3965 33.6626 49.2489 33.8102C49.1223 33.9367 48.9114 34 48.6162 34H45.8639ZM52.1276 25.9014H59.3088L55.7024 16.1262L52.1276 25.9014ZM70.9179 34C70.707 34 70.5277 33.9262 70.3801 33.7786C70.2324 33.6309 70.1586 33.4517 70.1586 33.2408V12.6147C70.1586 12.4038 70.2324 12.2246 70.3801 12.0769C70.5277 11.9293 70.707 11.8555 70.9179 11.8555H73.8599C74.0708 11.8555 74.2501 11.9293 74.3977 12.0769C74.5454 12.2246 74.6192 12.4038 74.6192 12.6147V30.2354H84.6475C84.8795 30.2354 85.0693 30.3092 85.2169 30.4569C85.3645 30.6045 85.4383 30.7943 85.4383 31.0263V33.2408C85.4383 33.4517 85.3645 33.6309 85.2169 33.7786C85.0693 33.9262 84.8795 34 84.6475 34H70.9179ZM91.5568 34C91.3459 34 91.1666 33.9262 91.019 33.7786C90.8714 33.6309 90.7975 33.4517 90.7975 33.2408V15.7466H84.9451C84.7342 15.7466 84.5549 15.6728 84.4073 15.5252C84.2596 15.3775 84.1858 15.1983 84.1858 14.9874V12.6464C84.1858 12.4144 84.2596 12.2246 84.4073 12.0769C84.5549 11.9293 84.7342 11.8555 84.9451 11.8555H101.079C101.311 11.8555 101.501 11.9293 101.648 12.0769C101.796 12.2246 101.87 12.4144 101.87 12.6464V14.9874C101.87 15.1983 101.796 15.3775 101.648 15.5252C101.501 15.6728 101.311 15.7466 101.079 15.7466H95.2581V33.2408C95.2581 33.4517 95.1843 33.6309 95.0366 33.7786C94.889 33.9262 94.6992 34 94.4672 34H91.5568ZM114.22 34.3164C112.258 34.3164 110.592 33.9789 109.221 33.304C107.871 32.6081 106.838 31.6274 106.121 30.362C105.404 29.0755 105.003 27.5359 104.919 25.7433C104.898 24.8786 104.887 23.9506 104.887 22.9594C104.887 21.9682 104.898 21.0191 104.919 20.1122C105.003 18.3407 105.404 16.8116 106.121 15.5252C106.859 14.2387 107.903 13.258 109.253 12.5831C110.624 11.8871 112.279 11.5391 114.22 11.5391C115.654 11.5391 116.94 11.729 118.079 12.1086C119.218 12.4882 120.188 13.0154 120.989 13.6903C121.791 14.3441 122.413 15.1139 122.856 15.9997C123.299 16.8855 123.531 17.8451 123.552 18.8785C123.573 19.0683 123.51 19.2265 123.362 19.353C123.236 19.4795 123.077 19.5428 122.888 19.5428H119.882C119.65 19.5428 119.46 19.4901 119.313 19.3846C119.165 19.2581 119.06 19.0577 118.996 18.7836C118.659 17.3916 118.079 16.4426 117.257 15.9364C116.434 15.4303 115.411 15.1772 114.188 15.1772C112.775 15.1772 111.647 15.5779 110.803 16.3793C109.959 17.1596 109.506 18.4567 109.443 20.2704C109.379 21.9998 109.379 23.7713 109.443 25.5851C109.506 27.3988 109.959 28.7064 110.803 29.5078C111.647 30.2882 112.775 30.6783 114.188 30.6783C115.411 30.6783 116.434 30.4252 117.257 29.9191C118.079 29.3918 118.659 28.4428 118.996 27.0719C119.06 26.7767 119.165 26.5763 119.313 26.4709C119.46 26.3654 119.65 26.3127 119.882 26.3127H122.888C123.077 26.3127 123.236 26.376 123.362 26.5025C123.51 26.629 123.573 26.7872 123.552 26.977C123.531 28.0104 123.299 28.97 122.856 29.8558C122.413 30.7416 121.791 31.5219 120.989 32.1968C120.188 32.8506 119.218 33.3673 118.079 33.7469C116.94 34.1265 115.654 34.3164 114.22 34.3164ZM126.696 34C126.527 34 126.369 33.9367 126.222 33.8102C126.095 33.6836 126.032 33.5255 126.032 33.3357C126.032 33.2513 126.053 33.1564 126.095 33.0509L133.719 12.6464C133.782 12.4355 133.898 12.2562 134.067 12.1086C134.257 11.9399 134.51 11.8555 134.826 11.8555H138.275C138.591 11.8555 138.833 11.9399 139.002 12.1086C139.171 12.2562 139.297 12.4355 139.382 12.6464L147.006 33.0509C147.027 33.1564 147.037 33.2513 147.037 33.3357C147.037 33.5255 146.974 33.6836 146.848 33.8102C146.721 33.9367 146.574 34 146.405 34H143.653C143.357 34 143.136 33.9367 142.988 33.8102C142.862 33.6626 142.777 33.5255 142.735 33.3989L141.248 29.5395H131.853L130.366 33.3989C130.324 33.5255 130.229 33.6626 130.081 33.8102C129.955 33.9367 129.744 34 129.448 34H126.696ZM132.96 25.9014H140.141L136.535 16.1262L132.96 25.9014ZM151.75 34C151.539 34 151.36 33.9262 151.212 33.7786C151.065 33.6309 150.991 33.4517 150.991 33.2408V12.6464C150.991 12.4144 151.065 12.2246 151.212 12.0769C151.36 11.9293 151.539 11.8555 151.75 11.8555H159.944C162.496 11.8555 164.51 12.446 165.986 13.6271C167.462 14.8081 168.2 16.5269 168.2 18.7836C168.2 20.3442 167.81 21.6413 167.03 22.6747C166.271 23.7081 165.248 24.4568 163.961 24.9208L168.58 32.9877C168.643 33.1142 168.675 33.2302 168.675 33.3357C168.675 33.5255 168.601 33.6836 168.453 33.8102C168.327 33.9367 168.179 34 168.011 34H165.132C164.773 34 164.499 33.9051 164.309 33.7153C164.119 33.5255 163.972 33.3357 163.866 33.1459L159.785 25.6484H155.388V33.2408C155.388 33.4517 155.314 33.6309 155.167 33.7786C155.04 33.9262 154.861 34 154.629 34H151.75ZM155.388 22.0736H159.849C161.135 22.0736 162.095 21.7889 162.727 21.2195C163.36 20.6289 163.677 19.8064 163.677 18.7519C163.677 17.6974 163.36 16.8749 162.727 16.2844C162.116 15.6728 161.156 15.367 159.849 15.367H155.388V22.0736ZM174.036 34C173.825 34 173.646 33.9262 173.498 33.7786C173.35 33.6309 173.277 33.4517 173.277 33.2408V12.6464C173.277 12.4144 173.35 12.2246 173.498 12.0769C173.646 11.9293 173.825 11.8555 174.036 11.8555H187.955C188.187 11.8555 188.377 11.9293 188.525 12.0769C188.672 12.2246 188.746 12.4144 188.746 12.6464V14.7343C188.746 14.9452 188.672 15.1244 188.525 15.2721C188.377 15.4197 188.187 15.4935 187.955 15.4935H177.547V21.0929H187.259C187.491 21.0929 187.681 21.1667 187.829 21.3144C187.976 21.4409 188.05 21.6202 188.05 21.8522V23.8135C188.05 24.0455 187.976 24.2353 187.829 24.383C187.681 24.5095 187.491 24.5728 187.259 24.5728H177.547V30.362H188.208C188.44 30.362 188.63 30.4358 188.778 30.5834C188.925 30.731 188.999 30.9209 188.999 31.1528V33.2408C188.999 33.4517 188.925 33.6309 188.778 33.7786C188.63 33.9262 188.44 34 188.208 34H174.036Z" fill="#40A3F8"/>
<rect x="194" y="29" width="7" height="7" rx="3.5" fill="#40A3F8"/>
</svg>
